<svg xmlns="http://www.w3.org/2000/svg" viewBox="0 0 1200 640">
<defs>
<marker id="arrow" viewBox="0 0 10 10" refX="9" refY="5" markerWidth="7" markerHeight="7" orient="auto-start-reverse">
<path d="M0,0 L10,5 L0,10 z" fill="#0A2342"/>
</marker>
<marker id="arrowAccent" viewBox="0 0 10 10" refX="9" refY="5" markerWidth="7" markerHeight="7" orient="auto-start-reverse">
<path d="M0,0 L10,5 L0,10 z" fill="#00AEEF"/>
</marker>
<pattern id="grid" width="28" height="28" patternUnits="userSpaceOnUse">
<path d="M28,0 H0 V28" fill="none" stroke="#E2E8F0" stroke-width="1"/>
</pattern>
</defs>
<rect width="1200" height="640" fill="#F8FAFC"/>
<rect width="1200" height="640" fill="url(#grid)"/>
<rect x="0.5" y="0.5" width="1199" height="639" fill="none" stroke="#E2E8F0" stroke-width="1"/>
<line x1="90" y1="330" x2="1110" y2="330" stroke="#0A2342" stroke-width="2.5"/><circle cx="90" cy="330" r="8" fill="#FFFFFF" stroke="#0A2342" stroke-width="3"/><text x="90" y="275" text-anchor="middle" font-family="Arial, Helvetica, sans-serif" font-size="14" font-weight="500" fill="#111827">Risk</text>
<text x="90" y="293" text-anchor="middle" font-family="Arial, Helvetica, sans-serif" font-size="14" font-weight="500" fill="#111827">Opened</text><line x1="90" y1="318" x2="90" y2="292" stroke="#E2E8F0" stroke-width="1.5"/><circle cx="345" cy="330" r="8" fill="#FFFFFF" stroke="#0A2342" stroke-width="3"/><text x="345" y="386" text-anchor="middle" font-family="Arial, Helvetica, sans-serif" font-size="14" font-weight="500" fill="#111827">Tracked</text><line x1="345" y1="342" x2="345" y2="372" stroke="#E2E8F0" stroke-width="1.5"/><circle cx="600" cy="330" r="11" fill="#00AEEF" stroke="#00AEEF" stroke-width="3"/><text x="600" y="284" text-anchor="middle" font-family="Arial, Helvetica, sans-serif" font-size="14" font-weight="700" fill="#00AEEF">Deprioritized</text><line x1="600" y1="318" x2="600" y2="292" stroke="#E2E8F0" stroke-width="1.5"/><circle cx="855" cy="330" r="8" fill="#FFFFFF" stroke="#0A2342" stroke-width="3"/><text x="855" y="386" text-anchor="middle" font-family="Arial, Helvetica, sans-serif" font-size="14" font-weight="500" fill="#111827">Closed</text><line x1="855" y1="342" x2="855" y2="372" stroke="#E2E8F0" stroke-width="1.5"/><circle cx="1110" cy="330" r="8" fill="#FFFFFF" stroke="#0A2342" stroke-width="3"/><text x="1110" y="284" text-anchor="middle" font-family="Arial, Helvetica, sans-serif" font-size="14" font-weight="500" fill="#111827">Recall</text><line x1="1110" y1="318" x2="1110" y2="292" stroke="#E2E8F0" stroke-width="1.5"/>
<text x="600" y="614" text-anchor="middle" font-family="Arial, Helvetica, sans-serif" font-size="13" font-weight="700" letter-spacing="2" fill="#6B7280">THE ROW WAS NEVER BLANK — IT WAS CLOSED</text>
</svg>